<?xml version="1.0" standalone="no"?>
<!DOCTYPE svg PUBLIC "-//W3C//DTD SVG 20010904//EN"
 "http://www.w3.org/TR/2001/REC-SVG-20010904/DTD/svg10.dtd">
<svg version="1.0" xmlns="http://www.w3.org/2000/svg"
 width="902.000000pt" height="1000.000000pt" viewBox="0 0 902.000000 1000.000000"
 preserveAspectRatio="xMidYMid meet">

<g transform="translate(0.000000,1000.000000) scale(0.100000,-0.100000)"
fill="#000000" stroke="none">
<path d="M4210 7494 c-217 -25 -366 -54 -520 -101 -936 -283 -1618 -1081
-1757 -2058 -23 -166 -23 -507 0 -670 103 -718 494 -1343 1087 -1740 328 -219
641 -338 1075 -407 126 -20 523 -17 670 6 558 85 1044 332 1431 728 367 375
594 823 685 1349 21 118 23 166 23 404 0 247 -3 282 -27 415 -93 519 -315 952
-677 1324 -226 232 -470 403 -770 540 -186 85 -437 158 -660 191 -100 16 -481
28 -560 19z m-128 -1414 c79 -24 165 -84 211 -148 20 -26 53 -88 75 -137 38
-87 418 -933 706 -1575 l142 -315 -115 -3 c-92 -2 -128 1 -181 17 -81 25 -163
81 -211 145 -22 29 -91 172 -170 350 -192 440 -401 916 -566 1291 -80 182
-152 345 -159 363 l-14 32 109 0 c80 0 126 -5 173 -20z m1398 -9 c275 -82 458
-271 531 -546 27 -104 30 -289 5 -385 -62 -238 -192 -407 -389 -504 -125 -61
-199 -79 -331 -80 l-109 -1 -83 180 c-45 99 -79 183 -75 187 3 3 78 8 166 10
151 3 163 5 217 31 192 94 268 327 174 532 -47 104 -152 182 -276 205 -29 5
-186 10 -349 10 l-296 0 -60 137 c-33 76 -77 164 -98 196 l-37 58 467 -3 c451
-4 471 -5 543 -27z m-1771 -249 c57 -157 66 -215 65 -427 0 -185 -2 -208 -26
-298 -15 -53 -54 -162 -87 -240 -34 -78 -61 -146 -61 -150 0 -4 115 -7 255 -7
208 0 263 -3 293 -15 172 -73 157 -315 -23 -364 -22 -6 -108 -11 -191 -11
-117 0 -168 -4 -228 -20 -184 -47 -359 -183 -442 -342 l-24 -48 -225 0 -225 0
9 23 c5 12 154 344 330 737 177 393 372 828 434 967 61 139 115 252 118 253 4
0 16 -26 28 -58z"/>
</g>
</svg>
